PathFileType	4	(X/Y/Z)	/Users/niels/Desktop/University/Third Semester/Perception and Action/Exam/Gymnastics Motion Tracking/Code for Gym Tracking/Analyzed Data/Webcam_Backflip/id18_1_trajectory_Sports2D/id18_1_trajectory_Sports2D_px_person00.trc
DataRate	CameraRate	NumFrames	NumMarkers	Units	OrigDataRate	OrigDataStartFrame	OrigNumFrames
29.872340425531917	29.872340425531917	11	22	m	29.872340425531917	58	235
Frame#	Time	Hip			RHip			RKnee			RAnkle			RBigToe			RSmallToe			RHeel			LHip			LKnee			LAnkle			LBigToe			LSmallToe			LHeel			Neck			Head			Nose			RShoulder			RElbow			RWrist			LShoulder			LElbow			LWrist		
		X1	Y1	Z1	X2	Y2	Z2	X3	Y3	Z3	X4	Y4	Z4	X5	Y5	Z5	X6	Y6	Z6	X7	Y7	Z7	X8	Y8	Z8	X9	Y9	Z9	X10	Y10	Z10	X11	Y11	Z11	X12	Y12	Z12	X13	Y13	Z13	X14	Y14	Z14	X15	Y15	Z15	X16	Y16	Z16	X17	Y17	Z17	X18	Y18	Z18	X19	Y19	Z19	X20	Y20	Z20	X21	Y21	Z21	X22	Y22	Z22
58	1.9415954415954417	0.9003762939773613	-0.5539618446050877	0.0	0.8975073975880833	-0.5526943582347208	0.0	0.8716929297235982	-0.6514954806954789	0.0	0.8307148316459245	-0.7418801246682412	0.0	0.8571763700677444	-0.7825797671643913	0.0	0.8475167023644612	-0.7804811433486144	0.0	0.8167675962398171	-0.7491567813659187	0.0	0.9047318882579902	-0.55527158739074	0.0	0.8748072310083042	-0.6540370099388774	0.0	0.8334100270546692	-0.7403919719211661	0.0	0.8573018306508554	-0.7807101244384478	0.0	0.8568104532867097	-0.7746373113246122	0.0	0.8155048716981693	-0.7463225742969771	0.0	1.014466113133007	-0.513634968602905	0.0	1.0834381152687802	-0.5104670261941802	0.0	1.0517084204391671	-0.5317983506220518	0.0	0.9991153951566804	-0.5140506868262832	0.0	0.9639835727480092	-0.571996890247027	0.0	0.9423016149676875	-0.6246224302199709	0.0	1.0092284130974032	-0.5102378958452616	0.0	0.9879208529254722	-0.5729081344059186	0.0	0.9743035894761626	-0.626580895387401	0.0
59	1.9750712250712252	0.897267477964472	-0.594530475817953	0.0	0.8945930539029536	-0.5934960854301693	0.0	0.879502363146181	-0.6948128019587205	0.0	0.8518904219809834	-0.7912227111592041	0.0	0.8826753311444839	-0.8254549302378867	0.0	0.8733522444727808	-0.8246255806008221	0.0	0.8407169040969239	-0.7998007939935701	0.0	0.901680210282323	-0.5956621749362101	0.0	0.8819839862929295	-0.6966849559917473	0.0	0.8532393574336629	-0.7901732013086493	0.0	0.8825803395039766	-0.8244111719069309	0.0	0.8800686491769698	-0.8204493444271055	0.0	0.8382905985287179	-0.7974313665804923	0.0	1.0005066887490046	-0.5331428585327972	0.0	1.0674681239502744	-0.5192298372355898	0.0	1.0389897034959283	-0.5449585641391559	0.0	0.985220836136016	-0.5344932790673782	0.0	0.9693642848960999	-0.5971089312966033	0.0	0.9663526145552986	-0.649864664235792	0.0	0.9953892278701466	-0.5309492171457046	0.0	0.9931766555442652	-0.5945366945740641	0.0	0.9943472612510755	-0.6474907124603968	0.0
60	2.0085470085470085	0.8957920016628869	-0.6379122669159831	0.0	0.8935300121021221	-0.6371379377659755	0.0	0.8874136091208616	-0.7396875224602723	0.0	0.8696991692688523	-0.8368090185223301	0.0	0.9024270038887151	-0.8635217822310832	0.0	0.8936312002343567	-0.8636230261803571	0.0	0.8608431379760444	-0.8447250389154677	0.0	0.9004475462162762	-0.6385324692349481	0.0	0.889727744707411	-0.7407461540712456	0.0	0.8707302781048353	-0.8361241606302603	0.0	0.9021767955676274	-0.8628942535656191	0.0	0.8978619845188517	-0.8608966572518076	0.0	0.8577091452145851	-0.8426885997924017	0.0	0.9847921960172217	-0.55704157695742	0.0	1.0483800194375807	-0.5332067459193723	0.0	1.0238652196192037	-0.5627952946676319	0.0	0.9699252137082304	-0.5592511552729887	0.0	0.9748334555735236	-0.6198433549937375	0.0	0.9915553953793003	-0.6660130152566931	0.0	0.9795102212970714	-0.5558863574918521	0.0	0.9960881130460576	-0.614666875809188	0.0	1.0112075699232472	-0.6604831988545162	0.0
61	2.042022792022792	0.8956342517581569	-0.6821437229495473	0.0	0.8940183404287395	-0.6816476844608438	0.0	0.8945693777247742	-0.784011041203578	0.0	0.8832020781335818	-0.876789480741392	0.0	0.9162481161126741	-0.895033418089819	0.0	0.9080464373475043	-0.8956089727652019	0.0	0.8758389834073154	-0.8821399381761047	0.0	0.9003215749881233	-0.681980153225822	0.0	0.8968790325014098	-0.7841998097530742	0.0	0.8847284701931429	-0.8764401134939938	0.0	0.9159254580379163	-0.8946846008366707	0.0	0.9097125484441309	-0.893703168669426	0.0	0.8720414537251416	-0.88051274545947	0.0	0.9685589470280834	-0.5836248856551152	0.0	1.027816900983956	-0.5513413215997031	0.0	1.0076818403990677	-0.5839727719669611	0.0	0.954672895209943	-0.5868964368364404	0.0	0.9796940771524598	-0.6385183953026169	0.0	1.0141189206172299	-0.6716350453596358	0.0	0.962391683431526	-0.5835115678352564	0.0	0.9942923274116977	-0.6332895136132842	0.0	1.0202545679335064	-0.6650399595363371	0.0
62	2.0754985754985755	0.8961194517572315	-0.7243003748053459	0.0	0.8952486073262829	-0.7240890334520166	0.0	0.9006140222253368	-0.8249883374167535	0.0	0.8929338548501723	-0.9090871503096181	0.0	0.9249286717309181	-0.9183115035785455	0.0	0.9173378676197294	-0.9189476578786472	0.0	0.8860971130236024	-0.9105625169327842	0.0	0.9002940583532585	-0.7233010070803523	0.0	0.9028053643506683	-0.8242979660292628	0.0	0.8955089099411848	-0.9090096342495926	0.0	0.9247903998270657	-0.9181469799012894	0.0	0.9162860954254934	-0.9164308790653555	0.0	0.8815960382330839	-0.9094546662275176	0.0	0.953161165936387	-0.6104958928525396	0.0	1.00773632282951	-0.571786794070929	0.0	0.9919423098086172	-0.6063552385240623	0.0	0.9407729169564446	-0.6151355816458909	0.0	0.9829855082380243	-0.6522550822742804	0.0	1.0304199861346595	-0.6678693800543671	0.0	0.9453396424446876	-0.6117048383771797	0.0	0.9859280079435557	-0.6507950638667482	0.0	1.0180459639908692	-0.6622548290284622	0.0
63	2.108974358974359	0.8963434266900125	-0.7607624424526476	0.0	0.8961507032620062	-0.7607784325535358	0.0	0.9058691709794391	-0.859484110769864	0.0	0.9000654461266726	-0.9324181766041898	0.0	0.929630362482103	-0.9333821156382499	0.0	0.922752649879462	-0.9337695824766912	0.0	0.892743220847781	-0.9296607347693516	0.0	0.8994199495016647	-0.7590728564082737	0.0	0.907608704562939	-0.8579830524044929	0.0	0.9038826698872201	-0.932460562547726	0.0	0.9301285148313942	-0.933177020752863	0.0	0.9190181197221964	-0.9284359635271687	0.0	0.8877287273927297	-0.9289762427664073	0.0	0.9397653736906846	-0.6347713931496488	0.0	0.9901147400404552	-0.5919754205824792	0.0	0.9780072986807941	-0.6272748795127957	0.0	0.9291503987272088	-0.6408948134953049	0.0	0.984054366116068	-0.6609392871058638	0.0	1.03870606697977	-0.6579143834413289	0.0	0.9299136444340399	-0.6376370646675414	0.0	0.970636911523452	-0.6672246620930314	0.0	1.00463569263898	-0.6544651716087939	0.0
64	2.1424501424501425	0.8954784930123388	-0.7876805594175081	0.0	0.8958402362428299	-0.7878256467213209	0.0	0.9111275819547433	-0.8840068347303806	0.0	0.9052478084349224	-0.946517284134261	0.0	0.9315084623622044	-0.9417714909309145	0.0	0.9255457538630324	-0.9417204643275937	0.0	0.8964134818795699	-0.9403697681142992	0.0	0.8970654731619951	-0.7855466127826602	0.0	0.9118229526612743	-0.8818946935921087	0.0	0.9100088078327259	-0.9464179183237025	0.0	0.9332705240543434	-0.9410472541432944	0.0	0.9196658390173126	-0.9310820354585185	0.0	0.8913152039486518	-0.9397225577592835	0.0	0.9290807233829006	-0.6535629889600377	0.0	0.9764439095197716	-0.6089732075008766	0.0	0.9667432761956505	-0.6439516205808355	0.0	0.920286895173527	-0.6609442854175958	0.0	0.9829691702392975	-0.6648487055206866	0.0	1.039715826408029	-0.6454739531303323	0.0	0.9173652837502481	-0.6580748330871217	0.0	0.9504810047425508	-0.6810513528895368	0.0	0.9851276332902885	-0.6442779969596999	0.0
65	2.175925925925926	0.8930506658463151	-0.8019531760162214	0.0	0.8938927536373416	-0.8021656448078781	0.0	0.9171238771674871	-0.8951606002494512	0.0	0.908218299700188	-0.9513679981048785	0.0	0.9315050510257046	-0.9449815324779701	0.0	0.9265701807899278	-0.9444579100366267	0.0	0.8972072454996888	-0.9439739453418191	0.0	0.8929590598489249	-0.7996245619745451	0.0	0.9159742397803866	-0.8927501356504376	0.0	0.9131742503677919	-0.9507615733316366	0.0	0.9351926803577326	-0.9430040343573075	0.0	0.9197494601041036	-0.9266832313130544	0.0	0.8924556855552029	-0.9427757839617061	0.0	0.9212780174899245	-0.6645742739647895	0.0	0.9672890239216058	-0.6200041687483976	0.0	0.9584284354119014	-0.6539580605163234	0.0	0.9142562447481677	-0.6727372140059775	0.0	0.9804445199236281	-0.6643499919450271	0.0	1.035983554980303	-0.6332879014585132	0.0	0.9081755812394298	-0.6701883101269966	0.0	0.9302185211267283	-0.6889492604719514	0.0	0.9681152875280272	-0.6336651334109967	0.0
66	2.2094017094017095	0.8890880244754416	-0.8025055936931554	0.0	0.8903403446040772	-0.8027665341791569	0.0	0.923949064209535	-0.8913355561242362	0.0	0.9084805371999495	-0.9470670843792878	0.0	0.9302995818159807	-0.9434871041253411	0.0	0.9261873295865041	-0.9426363897265434	0.0	0.8955372478843687	-0.9411682768015672	0.0	0.8874391114477709	-0.8001325586759818	0.0	0.9204568641151487	-0.8889328551104604	0.0	0.912824723007454	-0.9455343781123264	0.0	0.9362980780507315	-0.93947985296029	0.0	0.9201473848389208	-0.9176759207863283	0.0	0.891367088000048	-0.9387947924335894	0.0	0.9160494594999995	-0.6665910456336982	0.0	0.9622116783008047	-0.6230766212141134	0.0	0.9528654011411488	-0.6557455620699683	0.0	0.9106632967103158	-0.6750144505733379	0.0	0.9773059700596999	-0.6597877900063335	0.0	1.030410819679206	-0.6225097654757217	0.0	0.9021023161217359	-0.6724241891854776	0.0	0.9156940369165885	-0.6877507941638411	0.0	0.9606939728654813	-0.6235832600853332	0.0
67	2.242877492877493	0.8841226912593108	-0.7907940717842391	0.0	0.8855756325230689	-0.7910651490669863	0.0	0.9308682207662429	-0.8740815277353539	0.0	0.9063181175925479	-0.9344751492257951	0.0	0.9284409141979069	-0.9367972576293262	0.0	0.9245326449464283	-0.9359001338940768	0.0	0.8924509466395519	-0.9320586174073151	0.0	0.8816434906691195	-0.7883507251246459	0.0	0.9254871889675584	-0.8718503528453645	0.0	0.9096764029867639	-0.9316869431547787	0.0	0.9365586707840349	-0.9304071927010021	0.0	0.9210813823900548	-0.9061138948811718	0.0	0.8889033007403155	-0.9281156700030968	0.0	0.9127369977398742	-0.6597093542044693	0.0	0.9600691544923239	-0.6174940757908882	0.0	0.9495247852041789	-0.6490294154197531	0.0	0.908611241809737	-0.6679761333398169	0.0	0.973909991405332	-0.6515458597134556	0.0	1.0249943469468492	-0.6129749421152885	0.0	0.8985807937869755	-0.6649227906347834	0.0	0.9108279024103357	-0.6766000126380164	0.0	0.9643545977548054	-0.6140730120425995	0.0
68	2.2763532763532766	0.8789867953599478	-0.7700375500510456	0.0	0.880209936505917	-0.7702493857233642	0.0	0.936742230599713	-0.8474980195330177	0.0	0.9030211055766592	-0.9154072696278113	0.0	0.9265954151664122	-0.9244102810348276	0.0	0.9220493839914972	-0.9237691537129561	0.0	0.8892030651430551	-0.917027493098977	0.0	0.8769898741654185	-0.7673703344243835	0.0	0.9307654458082492	-0.8454362777640134	0.0	0.9055489474971039	-0.9113407723299152	0.0	0.9359520204041751	-0.916202856118605	0.0	0.9223794352240706	-0.8933709557878609	0.0	0.8862482932660103	-0.911657109609445	0.0	0.9105206527131151	-0.6452106673481709	0.0	0.9594560616040014	-0.6039163148368134	0.0	0.9476801234533334	-0.634786617120966	0.0	0.9069186850560332	-0.6530005007445994	0.0	0.969898240606913	-0.6401920608079146	0.0	1.0202970762081272	-0.6039701993488916	0.0	0.897020070200083	-0.6492865358048029	0.0	0.9156307532343111	-0.6573558032485487	0.0	0.9754058287205373	-0.604609413576829	0.0
